<svg width="61" height="48" fill="none" xmlns="http://www.w3.org/2000/svg"><path d="M57.31 0H39.53a10.609 10.609 0 00-5.206 1.359c-1.568.887-2.842 2.157-3.682 3.67-.841-1.513-2.115-2.783-3.683-3.67A10.609 10.609 0 0021.754 0H3.976C3.092 0 2.245.327 1.62.906a2.982 2.982 0 00-.977 2.183v32.944c0 .819.352 1.603.977 2.182.625.58 1.472.905 2.356.906h17.778c2.062.002 4.039.762 5.497 2.113 1.458 1.351 2.278 3.183 2.28 5.094 0 .273.117.534.326.728.208.193.49.301.786.301.294 0 .577-.108.785-.301a.993.993 0 00.326-.728c.002-1.911.822-3.743 2.28-5.094 1.458-1.35 3.435-2.11 5.498-2.113h17.777c.884 0 1.731-.326 2.356-.906a2.982 2.982 0 00.978-2.182V3.089a2.982 2.982 0 00-.978-2.183A3.476 3.476 0 0057.31 0zM21.753 37.062H3.976c-.295 0-.577-.109-.785-.302a.994.994 0 01-.326-.727V3.089a.99.99 0 01.326-.728c.208-.193.49-.302.785-.302h17.778c2.062.002 4.039.762 5.497 2.113 1.458 1.351 2.278 3.183 2.28 5.094V40.51a9.903 9.903 0 00-3.466-2.542 10.648 10.648 0 00-4.311-.906zm36.666-1.03a.994.994 0 01-.325.728 1.16 1.16 0 01-.786.302H39.532c-1.493 0-2.966.31-4.312.907a9.9 9.9 0 00-3.466 2.544V9.266c.002-1.911.822-3.743 2.28-5.094 1.458-1.35 3.435-2.11 5.498-2.113h17.777c.295 0 .577.109.786.302a.994.994 0 01.325.728v32.944z" fill="#CD2F2F"/></svg>