<svg width="61" height="49" fill="none" xmlns="http://www.w3.org/2000/svg"><path d="M59.396 46.254h-3.462V1.407c0-.29-.121-.568-.337-.773a1.187 1.187 0 00-.816-.32H38.627c-.306 0-.6.114-.816.32a1.066 1.066 0 00-.338.773V13.44h-15c-.306 0-.6.115-.816.32a1.066 1.066 0 00-.338.774v12.032h-15c-.306 0-.6.115-.816.32a1.066 1.066 0 00-.338.774v18.595H1.704c-.306 0-.6.115-.816.32a1.066 1.066 0 00-.338.774c0 .29.121.568.338.773.216.205.51.32.816.32h57.692c.306 0 .6-.115.816-.32.216-.205.338-.483.338-.773 0-.29-.122-.569-.338-.774a1.186 1.186 0 00-.816-.32zm-35.77-30.627h13.847v30.627H23.627V15.627zM7.474 28.753H21.32v17.501H7.473V28.753zM39.78 46.254V2.501h13.846v43.753H39.78z" fill="#CD2F2F"/></svg>