<svg width="61" height="39" fill="none" xmlns="http://www.w3.org/2000/svg"><path d="M26.04 27.865a14.4 14.4 0 006.909-6.65 14.442 14.442 0 001.208-9.524A14.42 14.42 0 0029.13 3.52a14.367 14.367 0 00-18.067 0 14.42 14.42 0 00-5.027 8.172 14.441 14.441 0 001.209 9.523 14.399 14.399 0 006.908 6.651A23.693 23.693 0 00.76 37.162a1.03 1.03 0 001.391 1.47c.114-.075.213-.171.29-.285a21.596 21.596 0 017.707-6.755 21.547 21.547 0 0119.896 0 21.596 21.596 0 017.708 6.754 1.027 1.027 0 001.852-.417 1.032 1.032 0 00-.172-.769 23.693 23.693 0 00-13.392-9.295zM7.766 14.743c0-2.444.723-4.832 2.078-6.864a12.336 12.336 0 015.534-4.551 12.307 12.307 0 0113.438 2.678 12.379 12.379 0 012.673 13.465 12.35 12.35 0 01-4.542 5.545 12.312 12.312 0 01-6.85 2.083 12.331 12.331 0 01-8.715-3.623 12.382 12.382 0 01-3.616-8.733zm52.36 23.852a1.025 1.025 0 01-1.432-.25 21.638 21.638 0 00-7.71-6.749 21.588 21.588 0 00-9.946-2.438 1.026 1.026 0 01-1.027-1.03 1.03 1.03 0 011.027-1.03 12.309 12.309 0 009.289-4.243 12.363 12.363 0 002.913-9.804 12.372 12.372 0 00-5.459-8.644 12.315 12.315 0 00-10.089-1.56 1.026 1.026 0 01-1.298-1.112 1.029 1.029 0 01.742-.87 14.358 14.358 0 0110.453 1.042 14.405 14.405 0 016.959 7.885 14.442 14.442 0 01-.246 10.523 14.401 14.401 0 01-7.32 7.55 23.693 23.693 0 0113.392 9.295 1.03 1.03 0 01-.248 1.435z" fill="#CD2F2F"/></svg>