<svg width="62" height="64" fill="none" xmlns="http://www.w3.org/2000/svg"><path d="M47.697 7.255H13.799m37.792 0h3.226c2.858 0 5.185 2.656 5.185 5.944v43.163c0 3.288-2.327 5.944-5.185 5.944H6.701c-2.88 0-5.208-2.656-5.208-5.944V13.199c0-3.288 2.328-5.944 5.208-5.944h3.203M60.002 20.09H1.493" stroke="#CD2F2F" stroke-width="2" stroke-miterlimit="10" stroke-linecap="round" stroke-linejoin="round"/><path d="M11.855 12.61c-1.067 0-1.94-.997-1.94-2.215v-6.27c0-1.218.873-2.215 1.94-2.215 1.068 0 1.942.997 1.942 2.216v6.269c0 1.218-.874 2.216-1.942 2.216zm37.782 0c-1.068 0-1.942-.997-1.942-2.215v-6.27c0-1.218.874-2.215 1.942-2.215 1.067 0 1.94.997 1.94 2.216v6.269c0 1.218-.873 2.216-1.94 2.216zM26.513 30.683h-10.46v6.693h10.46v-6.693zm18.929 0h-10.46v6.693h10.46v-6.693zm0 13.336h-10.46v6.693h10.46v-6.693zm-18.655 0H16.328v6.693h10.46v-6.693zM21.56 11.232h10.698m3.035 0h3.147" stroke="#CD2F2F" stroke-width="2" stroke-miterlimit="10" stroke-linecap="round" stroke-linejoin="round"/></svg>