<svg width="19" height="35" fill="none" xmlns="http://www.w3.org/2000/svg"><path d="M5.06 33.379V18.376c0-.088-.026-.114-.114-.114h-3.77c-.176 0-.176 0-.176-.185v-5.185c0-.167 0-.167.167-.167h3.735c.159 0 .159 0 .159-.15.008-.677-.01-1.362.017-2.039.026-.615.088-1.24.158-1.854.08-.695.229-1.371.431-2.03.36-1.187.87-2.303 1.679-3.261.545-.65 1.248-1.099 2.012-1.442a9.715 9.715 0 011.855-.597c.642-.141 1.283-.22 1.942-.282 1.17-.105 2.338-.07 3.507-.035.123 0 .255.018.378.018.08 0 .123.026.114.114v5.282c0 .211 0 .202-.22.194-.65-.027-1.3-.062-1.95-.062-.633 0-1.275.08-1.873.29-.817.281-1.415.826-1.749 1.626-.132.316-.175.668-.184 1.01-.044 1.02-.07 2.04-.097 3.06-.009.175 0 .175.167.175h5.74c.175 0 .175 0 .175.176v5.186c0 .175 0 .175-.184.175h-5.713c-.194 0-.194 0-.194.194v14.739c0 .061-.008.114-.008.176-2.004-.01-4-.01-6.003-.01v0z" stroke="#000" stroke-width="2" stroke-miterlimit="10"/></svg>