<svg width="36" height="27" fill="none" xmlns="http://www.w3.org/2000/svg"><path d="M34.073 6.53s-.316-2.408-1.3-3.463c-1.249-1.388-2.637-1.397-3.279-1.476-4.579-.352-11.443-.352-11.443-.352h-.018s-6.864 0-11.443.352c-.642.079-2.03.088-3.278 1.476C2.336 4.131 2.01 6.53 2.01 6.53s-.308 2.822-.308 5.643v2.645c0 2.822.325 5.643.325 5.643s.317 2.408 1.301 3.463c1.248 1.389 2.874 1.345 3.604 1.494 2.619.264 11.118.352 11.118.352s6.873-.01 11.452-.36c.642-.08 2.03-.089 3.278-1.477.976-1.055 1.301-3.463 1.301-3.463s.325-2.822.325-5.643v-2.645c-.009-2.83-.334-5.652-.334-5.652z" stroke="#000" stroke-width="2" stroke-miterlimit="10"/><path d="M13.963 7.365v12.27L24.185 13.5 13.963 7.365z" stroke="#000" stroke-width="2" stroke-miterlimit="10"/></svg>