<svg width="37" height="35" fill="none" xmlns="http://www.w3.org/2000/svg"><path d="M13.629 33.637c.009-1.274.009-2.549.018-3.823 0-1.064.008-2.118.008-3.182 0-1.88.01-3.77.01-5.651 0-1.363.008-2.716.008-4.078 0-1.38-.009-2.76-.018-4.14 0-.22-.008-.44-.017-.66v-.166c.096-.026 7.075-.035 7.224-.009v2.988c.01 0 .018.01.027.01.026-.036.052-.071.079-.115a8.451 8.451 0 011.38-1.635 6.681 6.681 0 012.97-1.556 9.052 9.052 0 012.479-.22 8.786 8.786 0 012.426.423c1.933.632 3.348 1.88 4.28 3.691.44.861.73 1.775.914 2.716.097.492.158.984.202 1.485.009.097.009.202.009.299 0 .053.017.105.026.15v13.464h-7.207V21.966a9.32 9.32 0 00-.132-1.636 5.208 5.208 0 00-.5-1.529c-.335-.641-.818-1.134-1.495-1.424a3.742 3.742 0 00-1.239-.281 4.208 4.208 0 00-1.327.123c-.818.22-1.477.686-1.995 1.354-.352.457-.633.958-.774 1.52a5.499 5.499 0 00-.123 1.257v12.27c-2.417.017-4.825.017-7.233.017v0zm-11.205 0V11.928h7.224V33.47c0 .053.01.114.01.167H2.423v0zM6.501 1.451l.36.053c.712.105 1.363.36 1.916.817.642.519 1.037 1.187 1.23 1.987.194.826.15 1.634-.193 2.417-.43.984-1.186 1.626-2.188 1.986a4.719 4.719 0 01-1.52.255c-.721.009-1.416-.106-2.066-.43-1.099-.546-1.758-1.433-1.986-2.637l-.08-.343v-.712l.08-.36c.167-.88.589-1.609 1.292-2.171.58-.457 1.239-.712 1.96-.818l.342-.053c.29.01.572.01.853.01v0z" stroke="#000" stroke-width="2" stroke-miterlimit="10"/></svg>