<svg width="22" height="23" fill="none" xmlns="http://www.w3.org/2000/svg"><path d="M9.554 5.97L6.171 2.235c-.39-.43-1.105-.428-1.558.006L1.831 4.907c-.828.793-1.065 1.97-.586 2.915 2.862 5.67 7.64 10.248 13.561 12.994.986.459 2.216.232 3.044-.561l2.808-2.692c.455-.435.456-1.123.002-1.497l-3.92-3.22c-.41-.336-1.047-.292-1.458.102l-1.364 1.307a.48.48 0 01-.553.084 14.25 14.25 0 01-5.36-5.135.427.427 0 01.088-.53l1.36-1.302c.412-.397.457-1.009.101-1.402v0z" stroke="#000" stroke-width="2" stroke-linecap="round" stroke-linejoin="round"/></svg>