<svg width="24" height="24" fill="none" xmlns="http://www.w3.org/2000/svg"><path d="M0 12.362c0 2.11 1.9 3.828 4.235 3.828a4.455 4.455 0 002.893-1.047l8.458 4.369c-.026.166-.057.331-.057.505 0 2.11 1.9 3.827 4.236 3.827 2.335 0 4.235-1.717 4.235-3.827s-1.9-3.827-4.235-3.827a4.455 4.455 0 00-2.893 1.046l-8.458-4.367c.026-.168.057-.333.057-.507 0-.173-.031-.34-.057-.506l8.458-4.367a4.458 4.458 0 002.893 1.046C22.1 8.535 24 6.818 24 4.707 24 2.597 22.1.88 19.765.88c-2.335 0-4.236 1.717-4.236 3.827 0 .174.031.34.057.507L7.128 9.58c-.78-.67-1.816-1.045-2.893-1.046C1.9 8.535 0 10.252 0 12.362z" fill="#000"/></svg>