<svg width="158" height="90" fill="none" xmlns="http://www.w3.org/2000/svg"><path d="M157.414 49.794c0 17.369-63.15 48.92-78.553 37.564-22.4 0 0-20.195 0-37.564s39.21-37.564 61.61-37.564c22.401 0 16.943 20.195 16.943 37.564z" fill="#B80808" fill-opacity=".8"/><path d="M155.332 40.763c.621 3.573-.735 7.229-3.621 10.89-2.886 3.663-7.259 7.275-12.546 10.729-10.57 6.905-24.684 13.108-37.51 17.764-12.832 4.658-24.321 7.748-29.633 8.453-.66.087-1.217.137-1.662.149-.376.01-.65-.008-.833-.041a1.59 1.59 0 01.082-.081c.444-.418 1.423-1.04 3.075-1.877 1.636-.83 3.887-1.851 6.833-3.077 5.91-2.46 10.354-4.477 13.601-6.173 3.236-1.69 5.328-3.08 6.495-4.296.586-.611.97-1.21 1.127-1.81a2.323 2.323 0 00-.217-1.732c-.277-.516-.73-.975-1.276-1.396-.55-.424-1.222-.832-1.97-1.239-.865-.47-1.873-.96-2.94-1.478a142.33 142.33 0 01-2.33-1.149c-1.928-.979-3.927-2.098-5.736-3.476-3.608-2.747-6.446-6.502-6.446-12.22 0-11.768 2.963-24.525 9.513-33.952 6.53-9.4 16.63-15.502 31.01-14.033 14.576 1.488 21.92 4.058 26.337 9.85 2.22 2.91 3.73 6.671 5.012 11.618 1.239 4.784 2.255 10.631 3.505 17.83l.13.747zM69.32 88.646s.005.001.012.007l-.012-.008z" stroke="#fff"/><path d="M78.627 51.331c-.816-6.04 3.632-11.518 9.711-11.959l20.96-1.517c8.688-.63 16.083 6.25 16.083 14.96v2.83a9 9 0 01-9 9H93.863a15.374 15.374 0 01-15.236-13.314z" fill="#F1B941" fill-opacity=".8"/><path d="M28.036 35.916h-.324c-.816 0-1.56.324-2.232.972a3.453 3.453 0 00-.9 1.26l-8.676 19.404c-.888 1.944-1.332 3.18-1.332 3.708h-.324L4.132 38.184c-.336-.768-.804-1.332-1.404-1.692-.576-.384-1.164-.576-1.764-.576H.676v-.36h8.1v.36h-.324c-.72 0-1.2.336-1.44 1.008a1.596 1.596 0 00-.072.504c0 .192.06.432.18.72l7.524 18.864 7.848-18.864c.096-.288.144-.564.144-.828 0-.288-.132-.588-.396-.9-.24-.336-.612-.504-1.116-.504H20.8v-.36h7.236v.36zm17.783 24.48h.288v.36h-7.38v-.36h.288c.456 0 .804-.156 1.044-.468.24-.312.36-.6.36-.864 0-.288-.048-.564-.144-.828l-1.98-4.788h-9.108l-1.98 4.68c-.12.312-.18.612-.18.9 0 .264.12.564.36.9.24.312.6.468 1.08.468h.288v.36h-6.876v-.36h.288c.504 0 1.008-.168 1.512-.504.528-.36.96-.888 1.296-1.584 5.256-11.232 7.992-17.112 8.208-17.64.408-1.008.624-1.68.648-2.016h.324l8.892 19.656c.696 1.392 1.62 2.088 2.772 2.088zm-16.164-8.028h8.208l-4.032-9.864-4.176 9.864zm47.09 8.028h.54v.36h-7.487v-.324h.54c.36 0 .672-.132.936-.396.288-.288.408-.624.36-1.008l-1.872-14.832-6.804 13.392c-.672 1.464-1.092 2.688-1.26 3.672h-.36l-8.676-16.74-1.62 14.508c-.048.36.06.684.324.972.288.288.624.432 1.008.432h.504v.324h-6.66v-.36h.54c.864 0 1.536-.312 2.016-.936.24-.312.384-.684.432-1.116l2.808-19.692h.36l9.504 18.288 9.18-18.288h.324l2.916 19.764c.096.6.372 1.08.828 1.44.456.36.996.54 1.62.54zm8.462-20.304c1.848-.96 3.876-1.44 6.084-1.44 2.232 0 4.272.48 6.12 1.44 1.848.936 3.312 2.268 4.392 3.996 1.104 1.728 1.656 3.684 1.656 5.868s-.552 4.14-1.656 5.868c-1.08 1.728-2.544 3.072-4.392 4.032-1.848.936-3.744 1.404-5.688 1.404-1.944 0-3.66-.276-5.148-.828-1.488-.552-2.784-1.32-3.888-2.304-1.08-.984-1.944-2.184-2.592-3.6-.624-1.416-.936-3.072-.936-4.968 0-1.92.54-3.744 1.62-5.472a11.119 11.119 0 014.428-3.996zm-.684 17.244c1.824 1.896 4.08 2.844 6.768 2.844 2.688 0 4.944-.948 6.768-2.844 1.824-1.92 2.736-4.38 2.736-7.38s-.912-5.448-2.736-7.344c-1.824-1.92-4.08-2.88-6.768-2.88-2.688 0-4.944.96-6.768 2.88-1.8 1.896-2.7 4.344-2.7 7.344s.9 5.46 2.7 7.38zm22.803 2.232c-.072-.288-.108-.876-.108-1.764s.156-1.788.468-2.7h.432a5.864 5.864 0 00-.036.648c0 1.296.42 2.364 1.26 3.204.864.816 2.052 1.224 3.564 1.224 1.584 0 2.82-.36 3.708-1.08.888-.744 1.332-1.692 1.332-2.844 0-1.176-.432-2.148-1.296-2.916l-7.2-5.544c-1.152-.984-1.728-2.304-1.728-3.96 0-.936.252-1.8.756-2.592.528-.792 1.248-1.416 2.16-1.872.936-.48 2.028-.72 3.276-.72 1.248 0 2.352.108 3.312.324h1.188l.072 3.924h-.396c0-1.008-.348-1.788-1.044-2.34-.696-.552-1.692-.828-2.988-.828s-2.364.336-3.204 1.008c-.84.648-1.26 1.5-1.26 2.556 0 1.032.468 1.932 1.404 2.7l7.272 5.616c1.104.912 1.656 2.184 1.656 3.816 0 1.632-.624 3.012-1.872 4.14-1.224 1.128-2.724 1.692-4.5 1.692-1.176 0-2.352-.144-3.528-.432-1.176-.288-2.076-.708-2.7-1.26z" fill="#fff"/></svg>